<svg xmlns="http://www.w3.org/2000/svg" version="1.0" width="518.000000pt" height="518.000000pt" viewBox="0 0 518.000000 518.000000" preserveAspectRatio="xMidYMid meet">

    <g transform="translate(0.000000,518.000000) scale(0.100000,-0.100000)" fill="#000000" stroke="none">
        <path d="M2788 5024 c-3 -3 -16 -6 -29 -8 -13 -1 -49 -10 -79 -19 -30 -9 -76 -19 -101 -22 -25 -3 -55 -13 -65 -23 -64 -56 -105 -75 -164 -74 -30 1 -40 -4 -48 -24 -7 -13 -16 -24 -22 -24 -5 0 -10 -8 -10 -18 0 -10 -6 -26 -14 -37 -11 -18 -26 -60 -31 -90 -1 -5 -9 -27 -18 -47 -24 -53 -25 -247 -1 -372 2 -12 -4 -20 -17 -23 -17 -5 -19 -11 -14 -32 4 -14 10 -51 13 -82 10 -77 30 -104 89 -118 64 -15 212 -19 210 -6 -1 6 6 10 16 10 11 0 33 22 55 55 20 30 42 54 47 54 6 -1 18 -19 29 -40 10 -22 27 -50 38 -63 14 -19 16 -26 6 -32 -14 -9 -14 -8 26 -29 38 -20 50 -41 42 -73 -7 -29 -46 -39 -46 -12 0 8 -11 17 -24 21 -28 7 -66 -3 -66 -17 0 -5 -7 -9 -15 -9 -8 0 -15 -4 -15 -9 0 -6 15 -7 34 -4 27 4 34 2 38 -15 5 -17 11 -18 49 -12 24 4 57 14 72 21 29 15 32 34 12 97 -7 23 -6 24 36 21 49 -2 110 7 153 23 30 12 65 73 66 114 0 11 6 29 14 39 11 15 17 17 28 7 8 -6 40 -14 72 -18 64 -8 80 -22 92 -87 4 -22 19 -52 36 -69 27 -28 28 -33 22 -88 -6 -54 -4 -60 19 -84 15 -14 30 -26 35 -26 5 0 20 21 35 48 73 135 91 272 36 272 -17 0 -19 -9 -19 -105 0 -100 -1 -106 -29 -137 -15 -18 -26 -39 -24 -45 6 -18 -12 -16 -27 2 -15 18 -6 45 18 52 34 9 44 40 37 119 -8 78 -23 95 -46 52 -7 -13 -18 -29 -26 -36 -11 -11 -13 -8 -13 17 0 17 5 31 11 31 6 0 28 17 48 38 37 37 39 42 46 128 4 49 9 105 12 124 16 122 13 142 -34 287 -45 141 -47 143 -103 195 -32 29 -78 69 -103 87 -25 19 -44 39 -41 43 4 7 -87 13 -123 9 -7 -1 -13 3 -13 9 0 5 8 10 17 10 11 0 14 3 7 10 -5 5 -24 6 -47 1 -45 -11 -76 -4 -100 20 -17 18 -76 26 -89 13z m32 -510 c0 -8 7 -14 16 -14 8 0 12 -4 9 -10 -3 -5 -4 -10 -1 -10 2 0 12 -3 22 -7 12 -4 15 -3 10 5 -4 7 -3 12 3 12 12 0 25 -20 26 -40 0 -8 9 -16 20 -18 17 -4 18 -2 6 12 -11 14 -10 17 10 25 14 5 28 5 33 0 17 -15 28 -10 21 10 -5 17 1 20 52 23 32 2 61 0 64 -4 3 -5 2 -32 -1 -60 -7 -50 -6 -54 27 -82 24 -21 39 -49 53 -94 11 -35 20 -69 20 -74 0 -6 -19 -7 -50 -3 -34 5 -50 3 -50 -4 0 -6 -4 -11 -10 -11 -5 0 -10 6 -10 14 0 31 -162 58 -286 49 l-75 -6 7 27 c5 22 3 26 -14 26 -11 0 -30 -6 -43 -13 -49 -25 -50 -27 -32 -45 16 -16 14 -17 -30 -20 -52 -3 -68 6 -85 53 -6 17 -11 24 -11 18 -1 -7 -12 -13 -25 -13 -13 0 -26 -4 -28 -8 -1 -4 -55 -6 -119 -4 l-116 4 13 57 c32 135 38 152 54 145 46 -18 77 -15 106 9 68 56 89 62 269 64 120 1 145 -1 145 -13z m-393 -293 c20 -10 16 -13 -37 -25 -30 -7 -56 -23 -49 -30 3 -3 30 -12 60 -20 29 -8 50 -15 44 -16 -5 -1 1 -6 15 -11 32 -13 51 11 43 52 -6 33 11 40 26 11 14 -26 -5 -93 -38 -133 -25 -30 -34 -33 -95 -37 -81 -5 -152 13 -172 43 -21 31 -29 117 -15 144 7 12 22 26 34 32 27 11 159 5 184 -10z m540 -22 c35 -13 43 -25 43 -69 0 -58 -19 -110 -43 -119 -44 -17 -133 -21 -192 -8 l-60 12 -3 47 c-3 44 -1 48 22 54 15 3 26 10 26 16 0 5 6 8 13 7 6 -1 21 -1 31 0 19 1 19 1 1 14 -11 9 -14 16 -7 21 6 3 19 -4 29 -16 15 -19 27 -23 78 -22 101 1 101 1 80 24 -17 19 -56 35 -105 43 -16 3 -9 5 17 6 23 0 54 -4 70 -10z m-214 -16 c-16 -47 -64 -70 -77 -37 -8 20 0 33 28 44 36 15 56 12 49 -7z m-335 -21 c2 -7 -2 -10 -12 -6 -9 3 -16 11 -16 16 0 13 23 5 28 -10z"/>
        <path d="M2740 4360 c-11 -11 -23 -20 -27 -20 -5 0 -8 -8 -8 -17 0 -15 8 -18 50 -16 127 5 149 5 213 -1 l67 -6 -45 40 -45 40 -92 0 c-80 0 -96 -3 -113 -20z"/>
        <path d="M2355 4341 c-97 -17 -84 -40 25 -46 47 -3 96 -6 109 -7 29 -4 36 11 18 36 -15 21 -86 29 -152 17z"/>
        <path d="M2220 4186 c0 -2 7 -6 15 -10 8 -3 15 -1 15 4 0 6 -7 10 -15 10 -8 0 -15 -2 -15 -4z"/>
        <path d="M2823 4113 c9 -2 23 -2 30 0 6 3 -1 5 -18 5 -16 0 -22 -2 -12 -5z"/>
        <path d="M2488 3875 c-6 -29 -2 -35 24 -35 10 0 18 7 18 15 0 8 7 15 16 15 14 0 14 3 4 15 -20 25 -57 19 -62 -10z"/>
        <path d="M2607 3743 c-4 -3 -25 -6 -48 -5 -27 1 -51 -5 -69 -18 -15 -11 -33 -20 -39 -20 -13 0 -37 -47 -29 -56 4 -3 25 4 49 15 35 17 54 20 110 15 63 -6 67 -8 56 -26 -9 -14 -20 -18 -42 -15 -16 2 -39 1 -50 -3 -18 -6 -17 -9 15 -38 19 -18 45 -32 58 -32 36 0 80 30 75 50 -5 20 30 31 85 27 22 -2 32 1 32 11 0 27 -21 52 -44 52 -13 0 -48 11 -78 25 -56 26 -70 29 -81 18z"/>
        <path d="M3082 3455 c-23 -26 -58 -24 -48 2 5 11 1 13 -17 7 -12 -4 -24 -10 -27 -14 -3 -3 -25 -7 -50 -7 -24 -1 -46 -6 -48 -12 -5 -16 -22 -13 -22 4 0 14 -3 14 -27 2 -16 -8 -34 -12 -40 -10 -7 3 -13 1 -13 -4 0 -11 -47 -15 -54 -4 -3 4 -33 2 -67 -5 -33 -7 -67 -10 -75 -7 -8 3 -14 0 -14 -6 0 -6 -7 -11 -15 -11 -21 0 -19 -23 6 -54 11 -14 16 -26 11 -26 -17 0 20 -124 44 -146 29 -28 72 -37 70 -15 -1 22 105 38 118 18 8 -12 24 -9 98 14 49 15 100 34 113 43 27 18 35 20 35 8 0 -4 -15 -16 -32 -27 -43 -25 -118 -82 -142 -107 -55 -58 -277 -177 -309 -165 -7 3 -19 29 -25 58 -19 82 -28 91 -47 47 -21 -51 -20 -86 3 -84 14 1 18 -9 20 -48 4 -68 -8 -75 -58 -35 -38 31 -43 32 -51 16 -20 -35 -99 -99 -99 -79 0 4 18 26 41 47 22 22 46 51 54 65 19 38 27 70 17 70 -14 0 -169 -127 -176 -145 -6 -18 23 -47 57 -56 22 -5 23 -11 13 -72 -5 -33 -23 -57 -41 -57 -18 0 -78 -98 -115 -186 -56 -134 -107 -364 -81 -364 6 0 11 -7 11 -15 0 -8 -6 -14 -12 -13 -14 3 -30 -148 -26 -247 l3 -60 15 60 c12 49 19 61 38 63 18 3 22 -1 22 -22 0 -16 9 -32 25 -42 21 -14 25 -24 26 -73 l2 -56 8 45 c4 25 8 80 8 123 1 43 5 76 10 73 5 -3 13 18 19 47 9 42 8 55 -4 67 -13 13 -16 13 -24 0 -6 -8 -9 -22 -9 -30 2 -31 -1 -40 -16 -40 -8 0 -15 9 -15 20 0 12 -7 35 -17 53 -15 30 -15 31 0 18 15 -12 17 -9 17 36 0 115 46 297 123 483 39 97 68 142 110 174 64 49 78 26 34 -54 -16 -30 -41 -67 -55 -82 -14 -15 -22 -33 -19 -42 4 -9 -12 -47 -35 -86 -54 -95 -87 -195 -98 -304 -13 -121 -12 -139 4 -102 9 20 15 25 21 16 5 -9 18 12 36 59 41 102 70 146 222 332 40 50 45 60 31 66 -18 7 -16 8 -120 -127 -62 -81 -90 -108 -100 -97 -7 6 18 57 28 57 4 0 8 5 8 11 0 23 33 79 43 72 6 -4 7 -1 3 6 -5 7 0 18 10 26 11 7 16 16 12 20 -3 4 0 14 8 23 8 10 50 72 93 138 44 67 84 125 91 129 11 7 70 -40 70 -55 0 -3 -25 -35 -55 -70 -37 -44 -53 -71 -49 -83 3 -10 0 -26 -7 -35 -7 -9 2 -3 21 13 61 54 123 98 171 125 25 14 125 77 220 141 96 64 185 122 199 129 14 7 68 41 121 76 55 37 108 64 122 64 37 0 43 19 14 46 -14 12 -27 28 -29 35 -3 9 -22 2 -61 -20 -31 -18 -59 -37 -63 -42 -6 -11 -34 7 -34 22 0 4 19 25 42 46 74 68 78 73 78 101 0 16 -8 36 -18 45 -24 22 -95 22 -128 1 -13 -9 -28 -14 -31 -10 -4 4 3 9 15 13 12 3 19 9 16 14 -3 5 2 19 10 31 23 33 19 45 -6 21 -13 -11 -38 -27 -55 -36 -28 -13 -33 -13 -33 -1 0 11 -6 11 -26 3 -35 -13 -38 -8 -19 27 26 50 13 61 -23 19z m62 -160 c-21 -19 -45 -35 -52 -35 -8 0 8 17 35 39 59 47 70 45 17 -4z m-69 -275 c3 -5 -1 -10 -10 -10 -9 0 -13 5 -10 10 3 6 8 10 10 10 2 0 7 -4 10 -10z m-45 -40 c0 -5 -4 -10 -10 -10 -5 0 -10 5 -10 10 0 6 5 10 10 10 6 0 10 -4 10 -10z m-42 -66 c2 -1 -1 -5 -7 -8 -5 -4 -15 4 -22 16 -12 22 -11 22 7 8 10 -8 20 -15 22 -16z m-75 -24 c4 -14 -4 -25 -30 -41 -31 -19 -36 -20 -50 -6 -14 13 -12 17 21 32 20 10 39 21 42 26 8 13 11 11 17 -11z m-761 -720 c-5 -29 -2 -26 -29 -34 -21 -7 -23 -4 -23 29 0 34 2 36 28 33 22 -2 26 -7 24 -28z m-46 -181 l-14 -44 -1 36 c-1 19 4 40 11 47 18 18 19 9 4 -39z m54 -6 c0 -14 -27 -30 -36 -20 -3 2 -2 17 2 31 5 21 9 24 20 15 8 -6 14 -18 14 -26z m30 -65 c0 -30 -1 -31 -17 -16 -13 14 -14 20 -3 32 18 22 20 20 20 -16z"/>
        <path d="M2780 3110 c-13 -9 -13 -10 0 -10 8 0 22 5 30 10 13 9 13 10 0 10 -8 0 -22 -5 -30 -10z"/>
        <path d="M2655 3080 c3 -5 14 -10 23 -10 15 0 15 2 2 10 -20 13 -33 13 -25 0z"/>
        <path d="M2708 3083 c7 -3 16 -2 19 1 4 3 -2 6 -13 5 -11 0 -14 -3 -6 -6z"/>
        <path d="M1263 2063 c-20 -7 -15 -23 6 -23 10 0 43 -16 71 -35 l53 -36 22 21 c12 11 28 20 37 20 28 0 9 36 -25 47 -33 11 -142 15 -164 6z"/>
        <path d="M2377 2033 c-4 -3 -7 -11 -7 -17 0 -6 5 -5 12 2 6 6 9 14 7 17 -3 3 -9 2 -12 -2z"/>
        <path d="M2370 1996 c0 -3 14 -20 31 -38 17 -18 26 -24 21 -13 -6 11 -13 28 -16 38 -5 14 -36 26 -36 13z"/>
        <path d="M1626 1938 c8 -24 24 -62 35 -86 11 -24 17 -47 14 -52 -3 -5 0 -18 7 -29 11 -17 10 -26 -6 -56 -25 -46 -47 -44 -81 5 -32 46 -37 49 -33 18 4 -32 -45 -37 -83 -9 -22 16 -29 18 -29 7 0 -8 13 -19 29 -24 16 -6 55 -27 86 -47 43 -27 123 -55 160 -55 1 0 0 12 -3 26 -4 24 -3 25 17 14 33 -17 37 -6 18 53 -8 28 -23 91 -33 139 l-17 88 -45 25 c-24 14 -46 25 -48 25 -2 0 4 -19 12 -42z"/>
        <path d="M1809 1918 c4 -28 6 -29 9 -9 2 13 0 27 -5 32 -6 6 -7 -3 -4 -23z"/>
        <path d="M1511 1900 c0 -8 4 -22 9 -30 12 -18 12 -2 0 25 -6 13 -9 15 -9 5z"/>
        <path d="M1357 1813 c-2 -10 -8 -25 -11 -34 -5 -11 1 -19 19 -27 34 -16 35 -16 35 11 0 57 -30 92 -43 50z"/>
        <path d="M1780 1823 c0 -15 22 -43 31 -38 16 10 10 32 -11 38 -11 3 -20 3 -20 0z"/>
        <path d="M1638 1783 c7 -3 16 -2 19 1 4 3 -2 6 -13 5 -11 0 -14 -3 -6 -6z"/>
        <path d="M1120 1770 c0 -6 16 -8 43 -4 58 9 59 14 4 14 -26 0 -47 -5 -47 -10z"/>
        <path d="M1840 1744 c0 -17 -5 -35 -11 -41 -6 -6 -9 -28 -7 -49 3 -38 4 -39 47 -42 33 -3 42 0 38 10 -3 7 -18 42 -33 78 -32 79 -34 81 -34 44z"/>
        <path d="M2392 1720 c2 -14 -4 -30 -12 -37 -13 -10 -12 -14 5 -33 l20 -23 -23 8 c-20 6 -23 4 -20 -12 2 -14 14 -19 50 -21 39 -3 47 0 42 12 -4 11 4 17 29 21 20 4 37 14 40 23 3 10 8 26 12 37 8 20 8 20 -8 0 -15 -20 -16 -19 -22 8 -8 31 -35 37 -35 7 0 -24 -13 -26 -30 -5 -7 8 -16 12 -21 10 -4 -3 -13 3 -19 12 -9 16 -10 15 -8 -7z"/>
        <path d="M2050 1663 c0 -53 14 -48 24 10 6 30 4 37 -9 37 -11 0 -15 -11 -15 -47z"/>
        <path d="M2135 1643 c-47 -10 -48 -16 -6 -24 48 -9 61 -6 61 17 0 14 -16 16 -55 7z"/>
        <path d="M2480 1610 c0 -5 5 -10 10 -10 6 0 10 5 10 10 0 6 -4 10 -10 10 -5 0 -10 -4 -10 -10z"/>
        <path d="M2484 1396 c-11 -6 -19 -17 -16 -24 2 -7 -5 -12 -16 -12 -20 0 -52 -24 -52 -39 0 -4 12 -8 28 -9 55 -1 164 -51 442 -200 36 -19 77 -43 92 -53 14 -11 31 -19 38 -19 6 0 29 -18 51 -40 22 -22 46 -40 54 -40 8 0 15 -3 15 -8 0 -4 10 -12 23 -17 16 -8 21 -17 19 -38 -2 -24 3 -30 43 -47 46 -20 95 -15 95 10 0 15 -33 50 -48 50 -7 0 -10 5 -7 10 3 6 18 7 32 4 18 -5 24 -3 19 5 -4 6 -20 11 -37 11 -19 0 -29 5 -29 15 0 12 4 13 19 5 29 -15 39 -12 15 5 -14 9 -20 22 -17 37 3 16 -5 32 -26 52 -17 17 -31 36 -31 44 0 8 -6 12 -15 8 -15 -6 -21 9 -7 18 11 7 27 -6 35 -26 3 -10 15 -18 25 -18 10 0 24 -6 32 -12 8 -7 6 -3 -5 10 -10 12 -25 20 -33 17 -8 -3 -12 0 -10 7 7 20 -75 78 -109 78 -17 -1 -17 -1 0 -14 9 -7 17 -19 17 -27 0 -8 -3 -10 -8 -4 -4 6 -20 18 -37 27 -16 10 -29 22 -28 27 2 6 -4 8 -12 5 -10 -4 -15 0 -15 11 0 12 -5 15 -16 11 -22 -9 -134 52 -128 69 5 13 -19 15 -32 3 -3 -4 -43 11 -89 32 -78 36 -229 91 -244 89 -3 -1 -15 -6 -27 -13z m666 -260 c0 -3 -4 -8 -10 -11 -5 -3 -10 -1 -10 4 0 6 5 11 10 11 6 0 10 -2 10 -4z"/>
        <path d="M2365 1310 c-3 -5 -1 -10 4 -10 6 0 11 5 11 10 0 6 -2 10 -4 10 -3 0 -8 -4 -11 -10z"/>
        <path d="M2120 1284 c0 -6 -29 -10 -72 -9 -40 1 -87 -3 -104 -8 -21 -7 -41 -6 -63 1 -47 17 -116 -4 -157 -46 -18 -19 -37 -31 -43 -28 -5 4 -12 2 -16 -4 -3 -5 -15 -10 -26 -10 -17 0 -56 -17 -69 -30 -18 -18 -69 -48 -92 -54 -16 -3 -28 -11 -28 -16 0 -6 -13 -10 -28 -10 -15 0 -33 -5 -40 -12 -6 -6 -19 -13 -29 -14 -9 -2 -28 -6 -42 -10 -14 -4 -33 -6 -40 -5 -8 2 -21 -5 -28 -16 -8 -10 -16 -17 -18 -15 -20 10 -15 -1 5 -13 64 -37 100 -49 161 -53 54 -3 74 0 109 18 l44 22 27 -30 c19 -21 25 -37 22 -55 -4 -21 5 -33 61 -78 65 -52 66 -54 46 -69 -12 -9 -18 -19 -15 -22 6 -6 86 1 94 8 3 2 -14 20 -37 39 -48 42 -65 91 -37 112 11 7 23 9 29 4 6 -4 23 -11 39 -15 22 -5 27 -3 27 13 0 13 -6 18 -17 17 -20 -3 -47 29 -38 44 3 5 20 12 38 14 78 13 117 15 112 7 -3 -5 6 -4 19 2 13 7 22 16 18 22 -3 5 2 4 12 -4 10 -9 20 -11 24 -5 11 15 80 64 91 64 5 0 28 27 51 59 24 34 74 84 116 116 41 32 74 59 74 61 0 2 -15 3 -33 2 -19 -1 -39 2 -45 6 -7 4 -12 2 -12 -3 0 -8 -6 -7 -19 1 -15 9 -23 9 -33 0 -11 -9 -17 -9 -26 0 -7 7 -12 8 -12 2z"/>
        <path d="M2940 1269 c0 -5 5 -7 10 -4 6 3 10 8 10 11 0 2 -4 4 -10 4 -5 0 -10 -5 -10 -11z"/>
        <path d="M995 1236 c-12 -9 -28 -11 -45 -6 -39 11 -58 -7 -48 -47 11 -42 52 -73 97 -73 20 -1 47 -7 61 -15 33 -19 44 -19 36 1 -3 9 -2 12 4 9 6 -4 9 -13 8 -20 -2 -8 1 -14 7 -15 20 -3 14 17 -15 48 -17 19 -30 44 -30 59 0 15 -11 36 -26 49 -30 28 -26 27 -49 10z"/>
        <path d="M2990 1229 c0 -5 5 -7 10 -4 6 3 10 8 10 11 0 2 -4 4 -10 4 -5 0 -10 -5 -10 -11z"/>
        <path d="M3265 1010 c-3 -5 -1 -10 4 -10 6 0 11 5 11 10 0 6 -2 10 -4 10 -3 0 -8 -4 -11 -10z"/>
        <path d="M2293 945 c0 -8 4 -12 9 -9 5 3 6 10 3 15 -9 13 -12 11 -12 -6z"/>
        <path d="M2188 909 c-10 -16 -13 -27 -6 -23 7 4 8 3 4 -4 -11 -18 -22 -14 -35 11 l-12 22 5 -22 c4 -24 -9 -32 -17 -10 -4 9 -6 9 -6 -1 -1 -7 -5 -10 -11 -7 -5 3 -10 -2 -11 -12 0 -11 -3 -13 -6 -5 -4 11 -9 10 -26 -1 -25 -16 -67 -13 -79 6 -6 9 -8 9 -8 0 0 -8 -15 -13 -40 -13 -29 0 -40 4 -40 15 0 18 -41 20 -58 3 -9 -9 -12 -7 -12 10 0 12 -4 22 -10 22 -13 0 -13 -13 1 -42 12 -26 75 -74 133 -102 22 -10 45 -23 52 -30 6 -6 21 -19 33 -28 29 -24 26 -38 -9 -51 -16 -6 -30 -18 -30 -27 0 -10 -3 -11 -8 -3 -4 6 -21 13 -38 16 -17 3 -40 10 -51 16 -20 10 -33 6 -33 -11 0 -4 7 -8 15 -8 21 0 31 -30 14 -41 -8 -5 -26 -9 -41 -9 -21 0 -28 -5 -28 -20 0 -11 6 -20 13 -20 25 0 37 -21 21 -37 -31 -31 -6 -45 33 -18 12 8 38 37 58 65 20 27 42 50 49 50 7 0 43 -14 80 -30 36 -17 92 -37 123 -45 69 -18 257 -22 296 -6 38 15 47 14 47 -4 0 -23 24 -18 65 15 21 17 46 30 56 30 26 0 99 30 99 41 0 5 6 9 13 9 23 0 100 41 155 82 43 32 52 43 46 60 -5 16 -3 20 9 15 19 -7 40 16 43 49 2 21 0 23 -12 13 -8 -6 -14 -17 -13 -23 3 -26 -2 -35 -16 -30 -8 4 -13 10 -10 15 3 4 -5 13 -17 20 -19 9 -21 9 -10 -2 16 -18 15 -29 -4 -29 -8 0 -12 5 -9 10 4 6 -5 10 -20 10 -18 0 -24 -4 -19 -12 4 -7 4 -10 -1 -6 -4 4 -15 3 -25 -2 -21 -11 -34 -1 -19 16 8 9 5 11 -13 8 -13 -2 -17 -2 -10 2 6 3 12 10 12 15 0 6 -4 8 -9 4 -5 -3 -12 -1 -16 5 -3 5 3 10 14 10 10 0 21 -5 23 -11 2 -6 9 0 16 15 8 18 8 26 1 26 -8 0 -7 5 1 16 8 8 9 14 4 13 -23 -4 -45 2 -39 11 3 6 2 10 -4 10 -5 0 -13 -5 -16 -11 -5 -7 -14 -4 -27 8 -21 18 -21 18 -9 -5 14 -26 6 -46 -15 -38 -8 3 -14 0 -14 -6 0 -7 -5 -6 -15 2 -8 7 -16 10 -16 6 -5 -23 -2 -33 13 -51 16 -17 17 -21 3 -34 -12 -12 -18 -13 -27 -3 -15 15 -32 16 -23 1 4 -5 -6 -23 -22 -38 -17 -15 -33 -35 -36 -45 -9 -22 -89 -22 -111 0 -19 19 -22 48 -3 38 9 -5 9 -4 0 6 -10 11 -18 11 -39 1 -22 -10 -29 -9 -36 1 -6 11 -10 11 -16 0 -7 -10 -15 -10 -36 -2 -15 5 -33 7 -39 3 -7 -3 -9 -3 -5 2 5 5 -2 13 -14 19 -11 6 -26 20 -32 31 -6 11 -14 22 -17 25 -3 3 -5 20 -4 38 1 25 -3 32 -18 32 -13 0 -17 -5 -13 -15 6 -17 -2 -19 -23 -6 -9 6 -10 11 -2 15 6 4 9 12 5 17 -3 5 -10 6 -16 3 -7 -5 -9 -1 -5 9 11 28 -7 19 -25 -14z m626 -74 c-9 -14 -24 -25 -33 -24 -12 0 -11 2 4 9 11 5 14 9 6 9 -19 1 6 31 25 31 12 0 11 -5 -2 -25z m6 -47 c0 -5 -7 -8 -15 -8 -23 0 -29 -1 -47 -11 -19 -10 -24 1 -8 17 11 11 70 12 70 2z"/>
        <path d="M2896 865 c4 -8 10 -15 15 -15 5 0 9 7 9 15 0 8 -7 15 -15 15 -9 0 -12 -6 -9 -15z"/>
        <path d="M2900 831 c0 -6 5 -13 10 -16 6 -3 10 1 10 9 0 9 -4 16 -10 16 -5 0 -10 -4 -10 -9z"/>
        <path d="M3076 784 l-49 -54 36 -15 c66 -27 110 -17 100 23 -4 17 -2 23 6 18 19 -12 13 24 -10 55 -11 16 -23 29 -27 28 -4 -1 -29 -25 -56 -55z"/>
        <path d="M2010 670 c0 -11 5 -20 10 -20 6 0 10 9 10 20 0 11 -4 20 -10 20 -5 0 -10 -9 -10 -20z"/>
    </g>
</svg>